<svg width="49" height="49" viewBox="0 0 49 49" fill="none" xmlns="http://www.w3.org/2000/svg">
<path opacity="0.6" d="M24.499 49C19.6534 49 14.9167 47.5631 10.8877 44.871C6.85874 42.1789 3.71854 38.3525 1.86422 33.8758C0.00988913 29.399 -0.475292 24.4729 0.470027 19.7204C1.41535 14.9679 3.74871 10.6024 7.17505 7.17604C11.7755 2.6092 17.9982 0.0516497 24.4805 0.0635177C30.9627 0.0753856 37.1761 2.65571 41.7597 7.23936C46.3434 11.823 48.9237 18.0364 48.9356 24.5186C48.9474 31.0009 46.3899 37.2236 41.823 41.824C39.5533 44.1062 36.8535 45.9155 33.8798 47.1473C30.9062 48.379 27.7177 49.0088 24.499 49ZM20.493 34.749H20.593C22.4591 34.7542 24.3077 34.3892 26.0317 33.6751C27.7558 32.9611 29.3211 31.9121 30.637 30.589C31.9641 29.2556 33.0148 27.6733 33.729 25.9329C34.4432 24.1925 34.8068 22.3283 34.799 20.447C34.799 20.247 34.793 20.039 34.781 19.797C35.7745 19.0882 36.6299 18.2037 37.305 17.187C36.3815 17.5895 35.4048 17.8569 34.405 17.981C35.4565 17.3554 36.2421 16.366 36.613 15.2C35.6272 15.7846 34.5487 16.1963 33.424 16.417C32.7355 15.6787 31.8404 15.1648 30.8556 14.9425C29.8707 14.7201 28.8417 14.7996 27.9027 15.1706C26.9637 15.5416 26.1582 16.1868 25.5912 17.0222C25.0242 17.8576 24.7221 18.8444 24.724 19.854C24.721 20.2393 24.7609 20.6237 24.843 21C22.8443 20.9004 20.889 20.3808 19.1045 19.475C17.32 18.5692 15.7463 17.2976 14.486 15.743C13.8399 16.8493 13.6402 18.1603 13.9277 19.4087C14.2152 20.6572 14.9682 21.7488 16.033 22.461C15.2372 22.4388 14.4582 22.2265 13.761 21.842V21.9C13.7662 23.0597 14.1688 24.1825 14.9016 25.0813C15.6344 25.9801 16.6532 26.6005 17.788 26.839C17.3711 26.9474 16.9419 27.0015 16.511 27H16.399C16.1046 27.0001 15.8108 26.971 15.522 26.913C15.8483 27.9102 16.4753 28.782 17.3168 29.4087C18.1583 30.0354 19.1732 30.3862 20.222 30.413C18.4432 31.7993 16.2533 32.5537 13.998 32.557H13.928C13.5477 32.5566 13.1677 32.5335 12.79 32.488C15.0748 33.9617 17.7363 34.7447 20.455 34.743L20.493 34.749Z" fill="white"/>
</svg>
